<svg xmlns="http://www.w3.org/2000/svg" xmlns:xlink="http://www.w3.org/1999/xlink" width="500" zoomAndPan="magnify" viewBox="131 94 113 112" height="500" preserveAspectRatio="xMidYMid meet" version="1.0"><defs><g/><clipPath id="100bf7d6df"><path d="M 131.375 94.128906 L 243.875 94.128906 L 243.875 205.878906 L 131.375 205.878906 Z M 131.375 94.128906 " clip-rule="nonzero"/></clipPath><clipPath id="3bec710086"><path d="M 0.375 0.128906 L 74 0.128906 L 74 73 L 0.375 73 Z M 0.375 0.128906 " clip-rule="nonzero"/></clipPath><clipPath id="ab28cb4255"><path d="M 39 39 L 112.617188 39 L 112.617188 111.878906 L 39 111.878906 Z M 39 39 " clip-rule="nonzero"/></clipPath><clipPath id="0267d2a4b5"><rect x="0" width="113" y="0" height="112"/></clipPath></defs><g clip-path="url(#100bf7d6df)"><g transform="matrix(1, 0, 0, 1, 131, 94)"><g clip-path="url(#0267d2a4b5)"><g clip-path="url(#3bec710086)"><path fill="#67dcff" d="M 0.117188 56.113281 C 0.117188 65.394531 7.660156 72.910156 16.984375 72.910156 L 51.53125 72.910156 C 63.472656 72.910156 73.171875 63.253906 73.171875 51.363281 L 73.171875 16.960938 C 73.171875 7.675781 65.625 0.164062 56.304688 0.164062 C 46.980469 0.164062 39.433594 7.675781 39.433594 16.960938 L 39.433594 39.316406 L 16.984375 39.316406 C 7.660156 39.316406 0.117188 46.859375 0.117188 56.113281 Z M 0.117188 56.113281 " fill-opacity="1" fill-rule="nonzero"/></g><g clip-path="url(#ab28cb4255)"><path fill="#587dff" d="M 112.617188 55.894531 C 112.617188 46.609375 105.070312 39.097656 95.746094 39.097656 L 61.199219 39.097656 C 49.257812 39.097656 39.558594 48.753906 39.558594 60.644531 L 39.558594 95.046875 C 39.558594 104.328125 47.105469 111.839844 56.425781 111.839844 C 65.75 111.839844 73.296875 104.328125 73.296875 95.046875 L 73.296875 72.691406 L 95.746094 72.691406 C 105.070312 72.691406 112.617188 65.175781 112.617188 55.894531 Z M 112.617188 55.894531 " fill-opacity="1" fill-rule="nonzero"/></g><path fill="#2720ff" d="M 39.558594 60.644531 L 39.558594 72.910156 L 51.53125 72.910156 C 63.472656 72.910156 73.171875 63.253906 73.171875 51.363281 L 73.171875 39.097656 L 61.199219 39.097656 C 49.257812 39.097656 39.558594 48.753906 39.558594 60.644531 Z M 39.558594 60.644531 " fill-opacity="1" fill-rule="nonzero"/></g></g></g><g fill="#587dff" fill-opacity="1"><g transform="translate(86.865863, 252.640325)"><g><path d="M 12.0625 -26.046875 C 14.8125 -26.046875 17.210938 -25.5 19.265625 -24.40625 C 21.316406 -23.320312 22.90625 -21.796875 24.03125 -19.828125 C 25.15625 -17.867188 25.71875 -15.601562 25.71875 -13.03125 C 25.71875 -10.476562 25.15625 -8.210938 24.03125 -6.234375 C 22.90625 -4.253906 21.304688 -2.71875 19.234375 -1.625 C 17.171875 -0.539062 14.78125 0 12.0625 0 L 2.296875 0 L 2.296875 -26.046875 Z M 11.65625 -5.5 C 14.050781 -5.5 15.914062 -6.148438 17.25 -7.453125 C 18.59375 -8.765625 19.265625 -10.625 19.265625 -13.03125 C 19.265625 -15.425781 18.59375 -17.289062 17.25 -18.625 C 15.914062 -19.96875 14.050781 -20.640625 11.65625 -20.640625 L 8.640625 -20.640625 L 8.640625 -5.5 Z M 11.65625 -5.5 "/></g></g></g><g fill="#587dff" fill-opacity="1"><g transform="translate(113.838705, 252.640325)"><g><path d="M 14.625 0.265625 C 12.175781 0.265625 9.929688 -0.300781 7.890625 -1.4375 C 5.847656 -2.582031 4.222656 -4.175781 3.015625 -6.21875 C 1.816406 -8.257812 1.21875 -10.550781 1.21875 -13.09375 C 1.21875 -15.644531 1.816406 -17.9375 3.015625 -19.96875 C 4.222656 -22 5.847656 -23.582031 7.890625 -24.71875 C 9.929688 -25.851562 12.175781 -26.421875 14.625 -26.421875 C 17.070312 -26.421875 19.316406 -25.851562 21.359375 -24.71875 C 23.398438 -23.582031 25.003906 -22 26.171875 -19.96875 C 27.347656 -17.9375 27.9375 -15.644531 27.9375 -13.09375 C 27.9375 -10.550781 27.34375 -8.257812 26.15625 -6.21875 C 24.96875 -4.175781 23.359375 -2.582031 21.328125 -1.4375 C 19.304688 -0.300781 17.070312 0.265625 14.625 0.265625 Z M 14.625 -5.53125 C 16.695312 -5.53125 18.359375 -6.222656 19.609375 -7.609375 C 20.859375 -8.992188 21.484375 -10.820312 21.484375 -13.09375 C 21.484375 -15.394531 20.859375 -17.234375 19.609375 -18.609375 C 18.359375 -19.984375 16.695312 -20.671875 14.625 -20.671875 C 12.519531 -20.671875 10.84375 -19.988281 9.59375 -18.625 C 8.34375 -17.269531 7.71875 -15.425781 7.71875 -13.09375 C 7.71875 -10.800781 8.34375 -8.96875 9.59375 -7.59375 C 10.84375 -6.21875 12.519531 -5.53125 14.625 -5.53125 Z M 14.625 -5.53125 "/></g></g></g><g fill="#587dff" fill-opacity="1"><g transform="translate(143.000537, 252.640325)"><g><path d="M 11.734375 0.265625 C 9.828125 0.265625 8.117188 -0.0390625 6.609375 -0.65625 C 5.097656 -1.28125 3.890625 -2.195312 2.984375 -3.40625 C 2.085938 -4.625 1.613281 -6.085938 1.5625 -7.796875 L 8.3125 -7.796875 C 8.414062 -6.828125 8.75 -6.085938 9.3125 -5.578125 C 9.882812 -5.078125 10.628906 -4.828125 11.546875 -4.828125 C 12.484375 -4.828125 13.222656 -5.039062 13.765625 -5.46875 C 14.304688 -5.90625 14.578125 -6.507812 14.578125 -7.28125 C 14.578125 -7.914062 14.359375 -8.441406 13.921875 -8.859375 C 13.492188 -9.285156 12.960938 -9.632812 12.328125 -9.90625 C 11.703125 -10.175781 10.8125 -10.488281 9.65625 -10.84375 C 7.96875 -11.351562 6.59375 -11.867188 5.53125 -12.390625 C 4.46875 -12.910156 3.550781 -13.675781 2.78125 -14.6875 C 2.019531 -15.707031 1.640625 -17.035156 1.640625 -18.671875 C 1.640625 -21.085938 2.515625 -22.984375 4.265625 -24.359375 C 6.023438 -25.734375 8.316406 -26.421875 11.140625 -26.421875 C 14.003906 -26.421875 16.3125 -25.734375 18.0625 -24.359375 C 19.820312 -22.984375 20.765625 -21.070312 20.890625 -18.625 L 14.03125 -18.625 C 13.976562 -19.46875 13.664062 -20.128906 13.09375 -20.609375 C 12.53125 -21.097656 11.800781 -21.34375 10.90625 -21.34375 C 10.144531 -21.34375 9.523438 -21.132812 9.046875 -20.71875 C 8.578125 -20.3125 8.34375 -19.726562 8.34375 -18.96875 C 8.34375 -18.125 8.738281 -17.46875 9.53125 -17 C 10.320312 -16.53125 11.5625 -16.019531 13.25 -15.46875 C 14.925781 -14.90625 16.289062 -14.363281 17.34375 -13.84375 C 18.394531 -13.320312 19.304688 -12.566406 20.078125 -11.578125 C 20.847656 -10.585938 21.234375 -9.3125 21.234375 -7.75 C 21.234375 -6.269531 20.851562 -4.921875 20.09375 -3.703125 C 19.34375 -2.492188 18.25 -1.53125 16.8125 -0.8125 C 15.375 -0.09375 13.679688 0.265625 11.734375 0.265625 Z M 11.734375 0.265625 "/></g></g></g><g fill="#587dff" fill-opacity="1"><g transform="translate(165.817995, 252.640325)"><g><path d="M 8.640625 -20.96875 L 8.640625 -15.703125 L 17.140625 -15.703125 L 17.140625 -10.796875 L 8.640625 -10.796875 L 8.640625 -5.078125 L 18.265625 -5.078125 L 18.265625 0 L 2.296875 0 L 2.296875 -26.046875 L 18.265625 -26.046875 L 18.265625 -20.96875 Z M 8.640625 -20.96875 "/></g></g></g><g fill="#587dff" fill-opacity="1"><g transform="translate(185.889947, 252.640325)"><g><path d="M 26.75 -26.046875 L 17.515625 0 L 9.578125 0 L 0.328125 -26.046875 L 7.09375 -26.046875 L 13.546875 -6.390625 L 20.046875 -26.046875 Z M 26.75 -26.046875 "/></g></g></g><g fill="#587dff" fill-opacity="1"><g transform="translate(212.974093, 252.640325)"><g><path d="M 18.515625 -4.609375 L 8.796875 -4.609375 L 7.234375 0 L 0.59375 0 L 10.015625 -26.046875 L 17.375 -26.046875 L 26.796875 0 L 20.078125 0 Z M 16.890625 -9.5 L 13.65625 -19.03125 L 10.46875 -9.5 Z M 16.890625 -9.5 "/></g></g></g><g fill="#587dff" fill-opacity="1"><g transform="translate(240.317941, 252.640325)"><g><path d="M 17.40625 0 L 8.640625 -11.5 L 8.640625 0 L 2.296875 0 L 2.296875 -26.046875 L 8.640625 -26.046875 L 8.640625 -14.625 L 17.328125 -26.046875 L 24.796875 -26.046875 L 14.703125 -13.28125 L 25.15625 0 Z M 17.40625 0 "/></g></g></g><g fill="#587dff" fill-opacity="1"><g transform="translate(266.17773, 252.640325)"><g><path d="M 21.046875 -26.046875 L 21.046875 -20.96875 L 14.140625 -20.96875 L 14.140625 0 L 7.796875 0 L 7.796875 -20.96875 L 0.890625 -20.96875 L 0.890625 -26.046875 Z M 21.046875 -26.046875 "/></g></g></g><g fill="#587dff" fill-opacity="1"><g transform="translate(88.248676, 276.231807)"><g><path d="M 7.390625 -10.9375 L 7.390625 -9.765625 L 2.640625 -9.765625 L 2.640625 -6.09375 L 6.5 -6.09375 L 6.5 -4.921875 L 2.640625 -4.921875 L 2.640625 0 L 1.203125 0 L 1.203125 -10.9375 Z M 7.390625 -10.9375 "/></g></g></g><g fill="#587dff" fill-opacity="1"><g transform="translate(96.151221, 276.231807)"><g><path d="M 2.640625 -7.203125 C 2.890625 -7.691406 3.242188 -8.070312 3.703125 -8.34375 C 4.171875 -8.613281 4.738281 -8.75 5.40625 -8.75 L 5.40625 -7.28125 L 5.03125 -7.28125 C 3.4375 -7.28125 2.640625 -6.410156 2.640625 -4.671875 L 2.640625 0 L 1.203125 0 L 1.203125 -8.59375 L 2.640625 -8.59375 Z M 2.640625 -7.203125 "/></g></g></g><g fill="#587dff" fill-opacity="1"><g transform="translate(101.999735, 276.231807)"><g><path d="M 4.953125 0.140625 C 4.148438 0.140625 3.421875 -0.0390625 2.765625 -0.40625 C 2.109375 -0.769531 1.59375 -1.289062 1.21875 -1.96875 C 0.851562 -2.644531 0.671875 -3.425781 0.671875 -4.3125 C 0.671875 -5.1875 0.859375 -5.960938 1.234375 -6.640625 C 1.617188 -7.316406 2.140625 -7.832031 2.796875 -8.1875 C 3.460938 -8.550781 4.203125 -8.734375 5.015625 -8.734375 C 5.835938 -8.734375 6.578125 -8.550781 7.234375 -8.1875 C 7.890625 -7.832031 8.40625 -7.316406 8.78125 -6.640625 C 9.164062 -5.972656 9.359375 -5.195312 9.359375 -4.3125 C 9.359375 -3.425781 9.160156 -2.644531 8.765625 -1.96875 C 8.378906 -1.289062 7.851562 -0.769531 7.1875 -0.40625 C 6.519531 -0.0390625 5.773438 0.140625 4.953125 0.140625 Z M 4.953125 -1.109375 C 5.460938 -1.109375 5.941406 -1.226562 6.390625 -1.46875 C 6.847656 -1.707031 7.210938 -2.066406 7.484375 -2.546875 C 7.765625 -3.035156 7.90625 -3.625 7.90625 -4.3125 C 7.90625 -5 7.769531 -5.582031 7.5 -6.0625 C 7.226562 -6.550781 6.867188 -6.910156 6.421875 -7.140625 C 5.984375 -7.378906 5.507812 -7.5 5 -7.5 C 4.476562 -7.5 4 -7.378906 3.5625 -7.140625 C 3.132812 -6.910156 2.789062 -6.550781 2.53125 -6.0625 C 2.269531 -5.582031 2.140625 -5 2.140625 -4.3125 C 2.140625 -3.613281 2.265625 -3.019531 2.515625 -2.53125 C 2.773438 -2.050781 3.117188 -1.691406 3.546875 -1.453125 C 3.972656 -1.222656 4.441406 -1.109375 4.953125 -1.109375 Z M 4.953125 -1.109375 "/></g></g></g><g fill="#587dff" fill-opacity="1"><g transform="translate(112.034715, 276.231807)"><g><path d="M 11.546875 -8.75 C 12.210938 -8.75 12.804688 -8.609375 13.328125 -8.328125 C 13.859375 -8.054688 14.273438 -7.644531 14.578125 -7.09375 C 14.878906 -6.539062 15.03125 -5.863281 15.03125 -5.0625 L 15.03125 0 L 13.609375 0 L 13.609375 -4.859375 C 13.609375 -5.722656 13.394531 -6.378906 12.96875 -6.828125 C 12.550781 -7.285156 11.984375 -7.515625 11.265625 -7.515625 C 10.523438 -7.515625 9.929688 -7.273438 9.484375 -6.796875 C 9.046875 -6.328125 8.828125 -5.640625 8.828125 -4.734375 L 8.828125 0 L 7.421875 0 L 7.421875 -4.859375 C 7.421875 -5.722656 7.207031 -6.378906 6.78125 -6.828125 C 6.363281 -7.285156 5.789062 -7.515625 5.0625 -7.515625 C 4.320312 -7.515625 3.734375 -7.273438 3.296875 -6.796875 C 2.859375 -6.328125 2.640625 -5.640625 2.640625 -4.734375 L 2.640625 0 L 1.203125 0 L 1.203125 -8.59375 L 2.640625 -8.59375 L 2.640625 -7.359375 C 2.921875 -7.804688 3.296875 -8.148438 3.765625 -8.390625 C 4.242188 -8.628906 4.769531 -8.75 5.34375 -8.75 C 6.070312 -8.75 6.710938 -8.585938 7.265625 -8.265625 C 7.816406 -7.941406 8.226562 -7.46875 8.5 -6.84375 C 8.738281 -7.445312 9.132812 -7.914062 9.6875 -8.25 C 10.25 -8.582031 10.867188 -8.75 11.546875 -8.75 Z M 11.546875 -8.75 "/></g></g></g><g fill="#587dff" fill-opacity="1"><g transform="translate(128.184765, 276.231807)"><g/></g></g><g fill="#587dff" fill-opacity="1"><g transform="translate(132.371231, 276.231807)"><g><path d="M 2.640625 -1.15625 L 6.46875 -1.15625 L 6.46875 0 L 1.203125 0 L 1.203125 -10.9375 L 2.640625 -10.9375 Z M 2.640625 -1.15625 "/></g></g></g><g fill="#587dff" fill-opacity="1"><g transform="translate(139.14484, 276.231807)"><g><path d="M 0.671875 -4.328125 C 0.671875 -5.203125 0.847656 -5.972656 1.203125 -6.640625 C 1.554688 -7.304688 2.046875 -7.820312 2.671875 -8.1875 C 3.296875 -8.550781 3.988281 -8.734375 4.75 -8.734375 C 5.5 -8.734375 6.148438 -8.570312 6.703125 -8.25 C 7.265625 -7.925781 7.679688 -7.519531 7.953125 -7.03125 L 7.953125 -8.59375 L 9.390625 -8.59375 L 9.390625 0 L 7.953125 0 L 7.953125 -1.59375 C 7.671875 -1.09375 7.25 -0.675781 6.6875 -0.34375 C 6.125 -0.0195312 5.472656 0.140625 4.734375 0.140625 C 3.972656 0.140625 3.28125 -0.046875 2.65625 -0.421875 C 2.039062 -0.796875 1.554688 -1.320312 1.203125 -2 C 0.847656 -2.6875 0.671875 -3.460938 0.671875 -4.328125 Z M 7.953125 -4.3125 C 7.953125 -4.957031 7.820312 -5.519531 7.5625 -6 C 7.300781 -6.488281 6.945312 -6.859375 6.5 -7.109375 C 6.050781 -7.367188 5.5625 -7.5 5.03125 -7.5 C 4.5 -7.5 4.015625 -7.375 3.578125 -7.125 C 3.140625 -6.875 2.789062 -6.503906 2.53125 -6.015625 C 2.269531 -5.535156 2.140625 -4.972656 2.140625 -4.328125 C 2.140625 -3.671875 2.269531 -3.097656 2.53125 -2.609375 C 2.789062 -2.117188 3.140625 -1.742188 3.578125 -1.484375 C 4.015625 -1.234375 4.5 -1.109375 5.03125 -1.109375 C 5.5625 -1.109375 6.050781 -1.234375 6.5 -1.484375 C 6.945312 -1.742188 7.300781 -2.117188 7.5625 -2.609375 C 7.820312 -3.097656 7.953125 -3.664062 7.953125 -4.3125 Z M 7.953125 -4.3125 "/></g></g></g><g fill="#587dff" fill-opacity="1"><g transform="translate(149.744288, 276.231807)"><g><path d="M 2.640625 -7.203125 C 2.890625 -7.691406 3.242188 -8.070312 3.703125 -8.34375 C 4.171875 -8.613281 4.738281 -8.75 5.40625 -8.75 L 5.40625 -7.28125 L 5.03125 -7.28125 C 3.4375 -7.28125 2.640625 -6.410156 2.640625 -4.671875 L 2.640625 0 L 1.203125 0 L 1.203125 -8.59375 L 2.640625 -8.59375 Z M 2.640625 -7.203125 "/></g></g></g><g fill="#587dff" fill-opacity="1"><g transform="translate(155.592802, 276.231807)"><g><path d="M 4.25 0.140625 C 3.59375 0.140625 3 0.03125 2.46875 -0.1875 C 1.945312 -0.414062 1.535156 -0.726562 1.234375 -1.125 C 0.929688 -1.53125 0.765625 -2 0.734375 -2.53125 L 2.21875 -2.53125 C 2.257812 -2.09375 2.457031 -1.738281 2.8125 -1.46875 C 3.175781 -1.195312 3.648438 -1.0625 4.234375 -1.0625 C 4.773438 -1.0625 5.203125 -1.179688 5.515625 -1.421875 C 5.835938 -1.660156 6 -1.96875 6 -2.34375 C 6 -2.71875 5.828125 -2.992188 5.484375 -3.171875 C 5.148438 -3.359375 4.632812 -3.539062 3.9375 -3.71875 C 3.300781 -3.882812 2.78125 -4.050781 2.375 -4.21875 C 1.96875 -4.394531 1.617188 -4.648438 1.328125 -4.984375 C 1.046875 -5.328125 0.90625 -5.78125 0.90625 -6.34375 C 0.90625 -6.78125 1.035156 -7.179688 1.296875 -7.546875 C 1.554688 -7.910156 1.925781 -8.195312 2.40625 -8.40625 C 2.894531 -8.625 3.445312 -8.734375 4.0625 -8.734375 C 5.007812 -8.734375 5.773438 -8.492188 6.359375 -8.015625 C 6.953125 -7.535156 7.269531 -6.878906 7.3125 -6.046875 L 5.875 -6.046875 C 5.84375 -6.492188 5.660156 -6.851562 5.328125 -7.125 C 5.003906 -7.394531 4.566406 -7.53125 4.015625 -7.53125 C 3.503906 -7.53125 3.097656 -7.421875 2.796875 -7.203125 C 2.492188 -6.984375 2.34375 -6.695312 2.34375 -6.34375 C 2.34375 -6.0625 2.429688 -5.828125 2.609375 -5.640625 C 2.796875 -5.453125 3.023438 -5.300781 3.296875 -5.1875 C 3.578125 -5.082031 3.960938 -4.960938 4.453125 -4.828125 C 5.066406 -4.660156 5.566406 -4.492188 5.953125 -4.328125 C 6.347656 -4.171875 6.679688 -3.929688 6.953125 -3.609375 C 7.234375 -3.285156 7.378906 -2.863281 7.390625 -2.34375 C 7.390625 -1.863281 7.257812 -1.4375 7 -1.0625 C 6.738281 -0.6875 6.367188 -0.390625 5.890625 -0.171875 C 5.410156 0.0351562 4.863281 0.140625 4.25 0.140625 Z M 4.25 0.140625 "/></g></g></g><g fill="#587dff" fill-opacity="1"><g transform="translate(163.777582, 276.231807)"><g><path d="M 9.046875 -4.625 C 9.046875 -4.351562 9.03125 -4.066406 9 -3.765625 L 2.140625 -3.765625 C 2.191406 -2.921875 2.476562 -2.257812 3 -1.78125 C 3.53125 -1.300781 4.171875 -1.0625 4.921875 -1.0625 C 5.535156 -1.0625 6.050781 -1.203125 6.46875 -1.484375 C 6.882812 -1.773438 7.175781 -2.164062 7.34375 -2.65625 L 8.875 -2.65625 C 8.644531 -1.820312 8.1875 -1.144531 7.5 -0.625 C 6.8125 -0.113281 5.953125 0.140625 4.921875 0.140625 C 4.109375 0.140625 3.378906 -0.0390625 2.734375 -0.40625 C 2.085938 -0.769531 1.582031 -1.289062 1.21875 -1.96875 C 0.851562 -2.644531 0.671875 -3.425781 0.671875 -4.3125 C 0.671875 -5.195312 0.847656 -5.972656 1.203125 -6.640625 C 1.554688 -7.316406 2.054688 -7.832031 2.703125 -8.1875 C 3.347656 -8.550781 4.085938 -8.734375 4.921875 -8.734375 C 5.742188 -8.734375 6.46875 -8.554688 7.09375 -8.203125 C 7.71875 -7.847656 8.195312 -7.359375 8.53125 -6.734375 C 8.875 -6.109375 9.046875 -5.40625 9.046875 -4.625 Z M 7.578125 -4.921875 C 7.578125 -5.460938 7.457031 -5.929688 7.21875 -6.328125 C 6.976562 -6.722656 6.648438 -7.019531 6.234375 -7.21875 C 5.816406 -7.425781 5.359375 -7.53125 4.859375 -7.53125 C 4.140625 -7.53125 3.523438 -7.300781 3.015625 -6.84375 C 2.515625 -6.382812 2.226562 -5.742188 2.15625 -4.921875 Z M 7.578125 -4.921875 "/></g></g></g><g fill="#587dff" fill-opacity="1"><g transform="translate(173.498971, 276.231807)"><g><path d="M 5.390625 -8.75 C 6.441406 -8.75 7.289062 -8.429688 7.9375 -7.796875 C 8.582031 -7.171875 8.90625 -6.257812 8.90625 -5.0625 L 8.90625 0 L 7.5 0 L 7.5 -4.859375 C 7.5 -5.722656 7.285156 -6.378906 6.859375 -6.828125 C 6.429688 -7.285156 5.84375 -7.515625 5.09375 -7.515625 C 4.34375 -7.515625 3.742188 -7.28125 3.296875 -6.8125 C 2.859375 -6.34375 2.640625 -5.65625 2.640625 -4.75 L 2.640625 0 L 1.203125 0 L 1.203125 -8.59375 L 2.640625 -8.59375 L 2.640625 -7.375 C 2.921875 -7.8125 3.300781 -8.148438 3.78125 -8.390625 C 4.269531 -8.628906 4.804688 -8.75 5.390625 -8.75 Z M 5.390625 -8.75 "/></g></g></g><g fill="#587dff" fill-opacity="1"><g transform="translate(183.533951, 276.231807)"><g/></g></g><g fill="#587dff" fill-opacity="1"><g transform="translate(187.720417, 276.231807)"><g><path d="M 4.609375 -10.9375 C 5.804688 -10.9375 6.835938 -10.710938 7.703125 -10.265625 C 8.578125 -9.816406 9.25 -9.179688 9.71875 -8.359375 C 10.1875 -7.535156 10.421875 -6.5625 10.421875 -5.4375 C 10.421875 -4.320312 10.1875 -3.351562 9.71875 -2.53125 C 9.25 -1.707031 8.578125 -1.078125 7.703125 -0.640625 C 6.835938 -0.210938 5.804688 0 4.609375 0 L 1.203125 0 L 1.203125 -10.9375 Z M 4.609375 -1.171875 C 6.023438 -1.171875 7.101562 -1.546875 7.84375 -2.296875 C 8.582031 -3.046875 8.953125 -4.09375 8.953125 -5.4375 C 8.953125 -6.800781 8.578125 -7.863281 7.828125 -8.625 C 7.085938 -9.382812 6.015625 -9.765625 4.609375 -9.765625 L 2.640625 -9.765625 L 2.640625 -1.171875 Z M 4.609375 -1.171875 "/></g></g></g><g fill="#587dff" fill-opacity="1"><g transform="translate(198.805931, 276.231807)"><g><path d="M 0.671875 -4.328125 C 0.671875 -5.203125 0.847656 -5.972656 1.203125 -6.640625 C 1.554688 -7.304688 2.046875 -7.820312 2.671875 -8.1875 C 3.296875 -8.550781 3.988281 -8.734375 4.75 -8.734375 C 5.5 -8.734375 6.148438 -8.570312 6.703125 -8.25 C 7.265625 -7.925781 7.679688 -7.519531 7.953125 -7.03125 L 7.953125 -8.59375 L 9.390625 -8.59375 L 9.390625 0 L 7.953125 0 L 7.953125 -1.59375 C 7.671875 -1.09375 7.25 -0.675781 6.6875 -0.34375 C 6.125 -0.0195312 5.472656 0.140625 4.734375 0.140625 C 3.972656 0.140625 3.28125 -0.046875 2.65625 -0.421875 C 2.039062 -0.796875 1.554688 -1.320312 1.203125 -2 C 0.847656 -2.6875 0.671875 -3.460938 0.671875 -4.328125 Z M 7.953125 -4.3125 C 7.953125 -4.957031 7.820312 -5.519531 7.5625 -6 C 7.300781 -6.488281 6.945312 -6.859375 6.5 -7.109375 C 6.050781 -7.367188 5.5625 -7.5 5.03125 -7.5 C 4.5 -7.5 4.015625 -7.375 3.578125 -7.125 C 3.140625 -6.875 2.789062 -6.503906 2.53125 -6.015625 C 2.269531 -5.535156 2.140625 -4.972656 2.140625 -4.328125 C 2.140625 -3.671875 2.269531 -3.097656 2.53125 -2.609375 C 2.789062 -2.117188 3.140625 -1.742188 3.578125 -1.484375 C 4.015625 -1.234375 4.5 -1.109375 5.03125 -1.109375 C 5.5625 -1.109375 6.050781 -1.234375 6.5 -1.484375 C 6.945312 -1.742188 7.300781 -2.117188 7.5625 -2.609375 C 7.820312 -3.097656 7.953125 -3.664062 7.953125 -4.3125 Z M 7.953125 -4.3125 "/></g></g></g><g fill="#587dff" fill-opacity="1"><g transform="translate(209.405379, 276.231807)"><g><path d="M 2.953125 -7.421875 L 2.953125 -2.359375 C 2.953125 -1.929688 3.039062 -1.628906 3.21875 -1.453125 C 3.394531 -1.285156 3.703125 -1.203125 4.140625 -1.203125 L 5.1875 -1.203125 L 5.1875 0 L 3.90625 0 C 3.113281 0 2.515625 -0.179688 2.109375 -0.546875 C 1.710938 -0.910156 1.515625 -1.515625 1.515625 -2.359375 L 1.515625 -7.421875 L 0.40625 -7.421875 L 0.40625 -8.59375 L 1.515625 -8.59375 L 1.515625 -10.765625 L 2.953125 -10.765625 L 2.953125 -8.59375 L 5.1875 -8.59375 L 5.1875 -7.421875 Z M 2.953125 -7.421875 "/></g></g></g><g fill="#587dff" fill-opacity="1"><g transform="translate(215.112776, 276.231807)"><g><path d="M 0.671875 -4.328125 C 0.671875 -5.203125 0.847656 -5.972656 1.203125 -6.640625 C 1.554688 -7.304688 2.046875 -7.820312 2.671875 -8.1875 C 3.296875 -8.550781 3.988281 -8.734375 4.75 -8.734375 C 5.5 -8.734375 6.148438 -8.570312 6.703125 -8.25 C 7.265625 -7.925781 7.679688 -7.519531 7.953125 -7.03125 L 7.953125 -8.59375 L 9.390625 -8.59375 L 9.390625 0 L 7.953125 0 L 7.953125 -1.59375 C 7.671875 -1.09375 7.25 -0.675781 6.6875 -0.34375 C 6.125 -0.0195312 5.472656 0.140625 4.734375 0.140625 C 3.972656 0.140625 3.28125 -0.046875 2.65625 -0.421875 C 2.039062 -0.796875 1.554688 -1.320312 1.203125 -2 C 0.847656 -2.6875 0.671875 -3.460938 0.671875 -4.328125 Z M 7.953125 -4.3125 C 7.953125 -4.957031 7.820312 -5.519531 7.5625 -6 C 7.300781 -6.488281 6.945312 -6.859375 6.5 -7.109375 C 6.050781 -7.367188 5.5625 -7.5 5.03125 -7.5 C 4.5 -7.5 4.015625 -7.375 3.578125 -7.125 C 3.140625 -6.875 2.789062 -6.503906 2.53125 -6.015625 C 2.269531 -5.535156 2.140625 -4.972656 2.140625 -4.328125 C 2.140625 -3.671875 2.269531 -3.097656 2.53125 -2.609375 C 2.789062 -2.117188 3.140625 -1.742188 3.578125 -1.484375 C 4.015625 -1.234375 4.5 -1.109375 5.03125 -1.109375 C 5.5625 -1.109375 6.050781 -1.234375 6.5 -1.484375 C 6.945312 -1.742188 7.300781 -2.117188 7.5625 -2.609375 C 7.820312 -3.097656 7.953125 -3.664062 7.953125 -4.3125 Z M 7.953125 -4.3125 "/></g></g></g><g fill="#587dff" fill-opacity="1"><g transform="translate(225.712225, 276.231807)"><g><path d="M 4.25 0.140625 C 3.59375 0.140625 3 0.03125 2.46875 -0.1875 C 1.945312 -0.414062 1.535156 -0.726562 1.234375 -1.125 C 0.929688 -1.53125 0.765625 -2 0.734375 -2.53125 L 2.21875 -2.53125 C 2.257812 -2.09375 2.457031 -1.738281 2.8125 -1.46875 C 3.175781 -1.195312 3.648438 -1.0625 4.234375 -1.0625 C 4.773438 -1.0625 5.203125 -1.179688 5.515625 -1.421875 C 5.835938 -1.660156 6 -1.96875 6 -2.34375 C 6 -2.71875 5.828125 -2.992188 5.484375 -3.171875 C 5.148438 -3.359375 4.632812 -3.539062 3.9375 -3.71875 C 3.300781 -3.882812 2.78125 -4.050781 2.375 -4.21875 C 1.96875 -4.394531 1.617188 -4.648438 1.328125 -4.984375 C 1.046875 -5.328125 0.90625 -5.78125 0.90625 -6.34375 C 0.90625 -6.78125 1.035156 -7.179688 1.296875 -7.546875 C 1.554688 -7.910156 1.925781 -8.195312 2.40625 -8.40625 C 2.894531 -8.625 3.445312 -8.734375 4.0625 -8.734375 C 5.007812 -8.734375 5.773438 -8.492188 6.359375 -8.015625 C 6.953125 -7.535156 7.269531 -6.878906 7.3125 -6.046875 L 5.875 -6.046875 C 5.84375 -6.492188 5.660156 -6.851562 5.328125 -7.125 C 5.003906 -7.394531 4.566406 -7.53125 4.015625 -7.53125 C 3.503906 -7.53125 3.097656 -7.421875 2.796875 -7.203125 C 2.492188 -6.984375 2.34375 -6.695312 2.34375 -6.34375 C 2.34375 -6.0625 2.429688 -5.828125 2.609375 -5.640625 C 2.796875 -5.453125 3.023438 -5.300781 3.296875 -5.1875 C 3.578125 -5.082031 3.960938 -4.960938 4.453125 -4.828125 C 5.066406 -4.660156 5.566406 -4.492188 5.953125 -4.328125 C 6.347656 -4.171875 6.679688 -3.929688 6.953125 -3.609375 C 7.234375 -3.285156 7.378906 -2.863281 7.390625 -2.34375 C 7.390625 -1.863281 7.257812 -1.4375 7 -1.0625 C 6.738281 -0.6875 6.367188 -0.390625 5.890625 -0.171875 C 5.410156 0.0351562 4.863281 0.140625 4.25 0.140625 Z M 4.25 0.140625 "/></g></g></g><g fill="#587dff" fill-opacity="1"><g transform="translate(233.897004, 276.231807)"><g><path d="M 8.828125 -8.59375 L 8.828125 0 L 7.40625 0 L 7.40625 -1.265625 C 7.132812 -0.828125 6.753906 -0.484375 6.265625 -0.234375 C 5.773438 0.00390625 5.238281 0.125 4.65625 0.125 C 3.988281 0.125 3.390625 -0.0078125 2.859375 -0.28125 C 2.328125 -0.5625 1.90625 -0.976562 1.59375 -1.53125 C 1.28125 -2.09375 1.125 -2.769531 1.125 -3.5625 L 1.125 -8.59375 L 2.546875 -8.59375 L 2.546875 -3.75 C 2.546875 -2.90625 2.757812 -2.253906 3.1875 -1.796875 C 3.613281 -1.335938 4.195312 -1.109375 4.9375 -1.109375 C 5.707031 -1.109375 6.3125 -1.34375 6.75 -1.8125 C 7.1875 -2.289062 7.40625 -2.976562 7.40625 -3.875 L 7.40625 -8.59375 Z M 8.828125 -8.59375 "/></g></g></g><g fill="#587dff" fill-opacity="1"><g transform="translate(243.931984, 276.231807)"><g><path d="M 2.640625 -7.015625 C 2.921875 -7.503906 3.335938 -7.910156 3.890625 -8.234375 C 4.453125 -8.566406 5.101562 -8.734375 5.84375 -8.734375 C 6.613281 -8.734375 7.304688 -8.550781 7.921875 -8.1875 C 8.546875 -7.820312 9.035156 -7.304688 9.390625 -6.640625 C 9.753906 -5.972656 9.9375 -5.203125 9.9375 -4.328125 C 9.9375 -3.460938 9.753906 -2.6875 9.390625 -2 C 9.035156 -1.320312 8.546875 -0.796875 7.921875 -0.421875 C 7.304688 -0.046875 6.613281 0.140625 5.84375 0.140625 C 5.113281 0.140625 4.46875 -0.0195312 3.90625 -0.34375 C 3.351562 -0.675781 2.929688 -1.085938 2.640625 -1.578125 L 2.640625 4.078125 L 1.203125 4.078125 L 1.203125 -8.59375 L 2.640625 -8.59375 Z M 8.46875 -4.328125 C 8.46875 -4.972656 8.335938 -5.535156 8.078125 -6.015625 C 7.816406 -6.503906 7.460938 -6.875 7.015625 -7.125 C 6.578125 -7.375 6.085938 -7.5 5.546875 -7.5 C 5.023438 -7.5 4.539062 -7.367188 4.09375 -7.109375 C 3.65625 -6.859375 3.300781 -6.488281 3.03125 -6 C 2.769531 -5.507812 2.640625 -4.945312 2.640625 -4.3125 C 2.640625 -3.664062 2.769531 -3.097656 3.03125 -2.609375 C 3.300781 -2.117188 3.65625 -1.742188 4.09375 -1.484375 C 4.539062 -1.234375 5.023438 -1.109375 5.546875 -1.109375 C 6.085938 -1.109375 6.578125 -1.234375 7.015625 -1.484375 C 7.460938 -1.742188 7.816406 -2.117188 8.078125 -2.609375 C 8.335938 -3.097656 8.46875 -3.671875 8.46875 -4.328125 Z M 8.46875 -4.328125 "/></g></g></g><g fill="#587dff" fill-opacity="1"><g transform="translate(254.531433, 276.231807)"><g><path d="M 2.640625 -7.015625 C 2.921875 -7.503906 3.335938 -7.910156 3.890625 -8.234375 C 4.453125 -8.566406 5.101562 -8.734375 5.84375 -8.734375 C 6.613281 -8.734375 7.304688 -8.550781 7.921875 -8.1875 C 8.546875 -7.820312 9.035156 -7.304688 9.390625 -6.640625 C 9.753906 -5.972656 9.9375 -5.203125 9.9375 -4.328125 C 9.9375 -3.460938 9.753906 -2.6875 9.390625 -2 C 9.035156 -1.320312 8.546875 -0.796875 7.921875 -0.421875 C 7.304688 -0.046875 6.613281 0.140625 5.84375 0.140625 C 5.113281 0.140625 4.46875 -0.0195312 3.90625 -0.34375 C 3.351562 -0.675781 2.929688 -1.085938 2.640625 -1.578125 L 2.640625 4.078125 L 1.203125 4.078125 L 1.203125 -8.59375 L 2.640625 -8.59375 Z M 8.46875 -4.328125 C 8.46875 -4.972656 8.335938 -5.535156 8.078125 -6.015625 C 7.816406 -6.503906 7.460938 -6.875 7.015625 -7.125 C 6.578125 -7.375 6.085938 -7.5 5.546875 -7.5 C 5.023438 -7.5 4.539062 -7.367188 4.09375 -7.109375 C 3.65625 -6.859375 3.300781 -6.488281 3.03125 -6 C 2.769531 -5.507812 2.640625 -4.945312 2.640625 -4.3125 C 2.640625 -3.664062 2.769531 -3.097656 3.03125 -2.609375 C 3.300781 -2.117188 3.65625 -1.742188 4.09375 -1.484375 C 4.539062 -1.234375 5.023438 -1.109375 5.546875 -1.109375 C 6.085938 -1.109375 6.578125 -1.234375 7.015625 -1.484375 C 7.460938 -1.742188 7.816406 -2.117188 8.078125 -2.609375 C 8.335938 -3.097656 8.46875 -3.671875 8.46875 -4.328125 Z M 8.46875 -4.328125 "/></g></g></g><g fill="#587dff" fill-opacity="1"><g transform="translate(265.130881, 276.231807)"><g><path d="M 4.953125 0.140625 C 4.148438 0.140625 3.421875 -0.0390625 2.765625 -0.40625 C 2.109375 -0.769531 1.59375 -1.289062 1.21875 -1.96875 C 0.851562 -2.644531 0.671875 -3.425781 0.671875 -4.3125 C 0.671875 -5.1875 0.859375 -5.960938 1.234375 -6.640625 C 1.617188 -7.316406 2.140625 -7.832031 2.796875 -8.1875 C 3.460938 -8.550781 4.203125 -8.734375 5.015625 -8.734375 C 5.835938 -8.734375 6.578125 -8.550781 7.234375 -8.1875 C 7.890625 -7.832031 8.40625 -7.316406 8.78125 -6.640625 C 9.164062 -5.972656 9.359375 -5.195312 9.359375 -4.3125 C 9.359375 -3.425781 9.160156 -2.644531 8.765625 -1.96875 C 8.378906 -1.289062 7.851562 -0.769531 7.1875 -0.40625 C 6.519531 -0.0390625 5.773438 0.140625 4.953125 0.140625 Z M 4.953125 -1.109375 C 5.460938 -1.109375 5.941406 -1.226562 6.390625 -1.46875 C 6.847656 -1.707031 7.210938 -2.066406 7.484375 -2.546875 C 7.765625 -3.035156 7.90625 -3.625 7.90625 -4.3125 C 7.90625 -5 7.769531 -5.582031 7.5 -6.0625 C 7.226562 -6.550781 6.867188 -6.910156 6.421875 -7.140625 C 5.984375 -7.378906 5.507812 -7.5 5 -7.5 C 4.476562 -7.5 4 -7.378906 3.5625 -7.140625 C 3.132812 -6.910156 2.789062 -6.550781 2.53125 -6.0625 C 2.269531 -5.582031 2.140625 -5 2.140625 -4.3125 C 2.140625 -3.613281 2.265625 -3.019531 2.515625 -2.53125 C 2.773438 -2.050781 3.117188 -1.691406 3.546875 -1.453125 C 3.972656 -1.222656 4.441406 -1.109375 4.953125 -1.109375 Z M 4.953125 -1.109375 "/></g></g></g><g fill="#587dff" fill-opacity="1"><g transform="translate(275.165861, 276.231807)"><g><path d="M 2.640625 -7.203125 C 2.890625 -7.691406 3.242188 -8.070312 3.703125 -8.34375 C 4.171875 -8.613281 4.738281 -8.75 5.40625 -8.75 L 5.40625 -7.28125 L 5.03125 -7.28125 C 3.4375 -7.28125 2.640625 -6.410156 2.640625 -4.671875 L 2.640625 0 L 1.203125 0 L 1.203125 -8.59375 L 2.640625 -8.59375 Z M 2.640625 -7.203125 "/></g></g></g><g fill="#587dff" fill-opacity="1"><g transform="translate(281.014364, 276.231807)"><g><path d="M 2.953125 -7.421875 L 2.953125 -2.359375 C 2.953125 -1.929688 3.039062 -1.628906 3.21875 -1.453125 C 3.394531 -1.285156 3.703125 -1.203125 4.140625 -1.203125 L 5.1875 -1.203125 L 5.1875 0 L 3.90625 0 C 3.113281 0 2.515625 -0.179688 2.109375 -0.546875 C 1.710938 -0.910156 1.515625 -1.515625 1.515625 -2.359375 L 1.515625 -7.421875 L 0.40625 -7.421875 L 0.40625 -8.59375 L 1.515625 -8.59375 L 1.515625 -10.765625 L 2.953125 -10.765625 L 2.953125 -8.59375 L 5.1875 -8.59375 L 5.1875 -7.421875 Z M 2.953125 -7.421875 "/></g></g></g></svg>